<svg id="Layer_2" data-name="Layer 2" xmlns="http://www.w3.org/2000/svg" viewBox="0 0 282.15 391.51"><defs><style>.cls-1{fill:#2d69e2;}.cls-2{fill:#56d3d6;}</style></defs><title>FIP Logo</title><path class="cls-1" d="M209.67,0V263.17h-60l-35.6-119.64V263.17H56.87V0h57.22l38.36,118.5V0h57.22Z"/><path class="cls-2" d="M141.44,84.48l57.62,178.7H149.69l-9.56-32.12h-26v32.12H67.6L91.3,84.48h50.13Zm-6.91,127.75c-5.26-20.3-20.44-68.7-20.44-68.7s1.21,52.88,0,68.7h20.44Z"/><path d="M33.68,276.62H44.45L68.7,304.07V283q0-3.37-.82-4.21a4.61,4.61,0,0,0-3.42-1.13H63.08v-1H76.89v1h-1.4a4.18,4.18,0,0,0-3.57,1.4q-0.64.84-.64,3.94v30.86H70.22L44.06,284.34v22.54q0,3.37.79,4.21a4.55,4.55,0,0,0,3.42,1.13h1.4v1H35.87v-1h1.38a4.22,4.22,0,0,0,3.6-1.4q0.64-.84.64-3.94V281.42q-0.88-.94-1.46-1.51a8.79,8.79,0,0,0-1.11-.93,5.21,5.21,0,0,0-1.14-.59q-0.61-.23-1.52-0.53a10,10,0,0,0-2.57-.24v-1Z"/><path d="M88.86,287.77v19.87a17.07,17.07,0,0,0,.09,1.93,5.15,5.15,0,0,0,.26,1.2,1.62,1.62,0,0,0,.45.69,3.92,3.92,0,0,0,.63.42,6.47,6.47,0,0,0,2.63.38v1h-13v-1a13.25,13.25,0,0,0,1.62-.08,3.37,3.37,0,0,0,1-.27,1.65,1.65,0,0,0,.61-0.47,4.26,4.26,0,0,0,.42-0.69,8,8,0,0,0,.41-3.1v-9.53q0-2.35-.09-3.7a8.85,8.85,0,0,0-.31-2,1.27,1.27,0,0,0-.64-0.85,2.81,2.81,0,0,0-1.07-.18,6.25,6.25,0,0,0-2,.41l-0.41-1,8.08-3h1.29Zm-2.43-12.93a3.11,3.11,0,0,1,1.16.22,3,3,0,0,1,.94.58,2.76,2.76,0,0,1,.63.86,2.55,2.55,0,0,1,0,2.13,2.91,2.91,0,0,1-.63.88,2.87,2.87,0,0,1-.94.59,3.2,3.2,0,0,1-2.31,0,3,3,0,0,1-1-.59,2.8,2.8,0,0,1-.64-0.88,2.55,2.55,0,0,1,0-2.13,2.76,2.76,0,0,1,.63-0.86,3,3,0,0,1,1-.58A3.22,3.22,0,0,1,86.43,274.83Z"/><path d="M119,303.83a15.07,15.07,0,0,1-1.67,4.35,12.72,12.72,0,0,1-2.6,3.19,10.54,10.54,0,0,1-7,2.62,10.39,10.39,0,0,1-4.3-.92,11,11,0,0,1-3.61-2.62,12.86,12.86,0,0,1-2.5-4.12,15,15,0,0,1-.94-5.44,13.53,13.53,0,0,1,1-5.33,12.79,12.79,0,0,1,2.77-4.14,12.43,12.43,0,0,1,4.07-2.69,12.82,12.82,0,0,1,4.93-1,11.55,11.55,0,0,1,3.61.54,10.33,10.33,0,0,1,2.85,1.4,7.36,7.36,0,0,1,1.89,1.92,3.79,3.79,0,0,1,.69,2.08,2.13,2.13,0,0,1-.7,1.66,2.91,2.91,0,0,1-2,.63,5.34,5.34,0,0,1-1.24-.13,2.4,2.4,0,0,1-1-.49,2.49,2.49,0,0,1-.69-1,5.36,5.36,0,0,1-.35-1.59,3.36,3.36,0,0,0-1.16-2.42,4.4,4.4,0,0,0-2.85-.82,6.28,6.28,0,0,0-3,.72,6.74,6.74,0,0,0-2.22,1.94,8.68,8.68,0,0,0-1.36,2.86,12.91,12.91,0,0,0-.45,3.47,14.52,14.52,0,0,0,.6,4.17,11.89,11.89,0,0,0,1.73,3.58,8.91,8.91,0,0,0,2.74,2.51,7.1,7.1,0,0,0,3.66.94,9.46,9.46,0,0,0,2.34-.28,6.71,6.71,0,0,0,2.14-1,8.9,8.9,0,0,0,2-1.93,16.36,16.36,0,0,0,1.83-3.12Z"/><path d="M130.73,274.83v18.09q0.94-.84,1.86-1.76a16.15,16.15,0,0,1,2-1.67,10.48,10.48,0,0,1,2.3-1.24,7.72,7.72,0,0,1,2.82-.49,6.42,6.42,0,0,1,3.48.85,6,6,0,0,1,2.11,2.27,10,10,0,0,1,1,3.23,24.51,24.51,0,0,1,.28,3.73v9.8q0,1.24,0,2.09a2.61,2.61,0,0,0,.41,1.38,2.22,2.22,0,0,0,1.17.8,9.34,9.34,0,0,0,2.36.35v1H137.4v-1H138a7.54,7.54,0,0,0,2-.22,2,2,0,0,0,1.11-.74,2.86,2.86,0,0,0,.47-1.42q0.09-.89.09-2.24v-9.8q0-1.16,0-2.36a6.72,6.72,0,0,0-.42-2.19,3.51,3.51,0,0,0-1.27-1.62,4.39,4.39,0,0,0-2.56-.63,7.45,7.45,0,0,0-1.46.15,6.46,6.46,0,0,0-1.54.54,10.38,10.38,0,0,0-1.71,1.08,20,20,0,0,0-2,1.77v13.07q0,1.32.06,2.06a4.1,4.1,0,0,0,.22,1.15,1.26,1.26,0,0,0,.44.59,6.27,6.27,0,0,0,.72.4,3.44,3.44,0,0,0,1.14.31,13.89,13.89,0,0,0,1.76.09v1H121.78v-1a12.4,12.4,0,0,0,1.89-.12,2.36,2.36,0,0,0,1.27-.58,2.67,2.67,0,0,0,.72-1.39,11.49,11.49,0,0,0,.22-2.52V285.26a33,33,0,0,0-.23-5.21,2.2,2.2,0,0,0-.66-1.32,1.93,1.93,0,0,0-1.21-.35,7.08,7.08,0,0,0-2,.43l-0.41-.94,8-3h1.35Z"/><path d="M165.93,287.77a12.9,12.9,0,0,1,9.29,3.78,12.56,12.56,0,0,1,3.61,8.86,13.61,13.61,0,0,1-1,5.12,13.93,13.93,0,0,1-2.74,4.33,13.2,13.2,0,0,1-4.18,3,12.57,12.57,0,0,1-5.33,1.12,12.14,12.14,0,0,1-5.16-1.08,12.68,12.68,0,0,1-4-2.88,12.87,12.87,0,0,1-2.57-4.12,13.1,13.1,0,0,1-.91-4.81,13.44,13.44,0,0,1,.94-4.91,13.65,13.65,0,0,1,2.65-4.28,13.07,13.07,0,0,1,4.1-3A12.14,12.14,0,0,1,165.93,287.77ZM165,289.52a6.3,6.3,0,0,0-2.47.5,5.48,5.48,0,0,0-2.11,1.62,8.52,8.52,0,0,0-1.48,2.89,14.5,14.5,0,0,0-.56,4.31,20.68,20.68,0,0,0,.6,5,15.37,15.37,0,0,0,1.7,4.22,9.25,9.25,0,0,0,2.66,2.9,6,6,0,0,0,3.5,1.08,6.6,6.6,0,0,0,2.59-.5,5.15,5.15,0,0,0,2.06-1.62,8.25,8.25,0,0,0,1.38-3,17.49,17.49,0,0,0,.5-4.51,21.75,21.75,0,0,0-.56-5,14.29,14.29,0,0,0-1.62-4.12,8.57,8.57,0,0,0-2.63-2.79A6.34,6.34,0,0,0,165,289.52Z"/><path d="M192,274.83v32.8a17.07,17.07,0,0,0,.09,1.93,4.88,4.88,0,0,0,.26,1.19,1.75,1.75,0,0,0,.45.69,2.91,2.91,0,0,0,.69.43,6.94,6.94,0,0,0,2.84.38v1H183.19v-1a9.25,9.25,0,0,0,2.09-.19,2.17,2.17,0,0,0,1.2-.7A2.71,2.71,0,0,0,187,310a18.51,18.51,0,0,0,.12-2.32V285.18q0-2.11,0-3.39a9.76,9.76,0,0,0-.16-1.74,2.38,2.38,0,0,0-.67-1.32,1.77,1.77,0,0,0-1.14-.35,5.66,5.66,0,0,0-1.93.43l-0.5-.94,8-3H192Z"/><path d="M214.62,309.67a39.64,39.64,0,0,1-5.18,3.4,8.33,8.33,0,0,1-3.36.68,6.92,6.92,0,0,1-2.55-.46,5.91,5.91,0,0,1-2-1.3,6,6,0,0,1-1.33-2,6.79,6.79,0,0,1-.48-2.61,5.7,5.7,0,0,1,1.23-3.63,8.44,8.44,0,0,1,1.57-1.53,17.29,17.29,0,0,1,2.24-1.43,66.38,66.38,0,0,1,9.89-3.94v-1a12.1,12.1,0,0,0-.34-3.1,5.1,5.1,0,0,0-1-2,3.42,3.42,0,0,0-1.57-1.05,6.64,6.64,0,0,0-2.11-.31,5.17,5.17,0,0,0-1.68.26,4.26,4.26,0,0,0-1.27.68,2.9,2.9,0,0,0-.8,1,2.48,2.48,0,0,0-.28,1.12l0.06,1.57a2.56,2.56,0,0,1-.69,1.92,2.46,2.46,0,0,1-1.8.68,2.37,2.37,0,0,1-1.77-.7,2.62,2.62,0,0,1-.69-1.92,4.34,4.34,0,0,1,.66-2.24,6.69,6.69,0,0,1,1.9-2,10.16,10.16,0,0,1,3.07-1.43,16.69,16.69,0,0,1,9.44.3,5.54,5.54,0,0,1,3.13,2.89,13.83,13.83,0,0,1,.53,4.75v8.4q0,1.78,0,2.86t0.1,1.48a1.73,1.73,0,0,0,.48,1.05,1.2,1.2,0,0,0,.78.27,1.84,1.84,0,0,0,.56-0.08,2.31,2.31,0,0,0,.61-0.32,8.72,8.72,0,0,0,.82-0.66l1.2-1.09v1.51q-3.31,4-6.26,4a3,3,0,0,1-2.28-.92A4.47,4.47,0,0,1,214.62,309.67Zm0-1.76v-9.42q-2.22.81-3.64,1.38a21.1,21.1,0,0,0-2.06.92,10.1,10.1,0,0,0-3.31,2.5,4.5,4.5,0,0,0-1,2.82,4.71,4.71,0,0,0,.34,1.8,4.61,4.61,0,0,0,.91,1.43,4.07,4.07,0,0,0,1.33.94,3.84,3.84,0,0,0,1.58.34Q211,310.61,214.62,307.91Z"/><path d="M243.35,287.77v8.42h-1a16.35,16.35,0,0,0-1.26-3.31,7.39,7.39,0,0,0-1.59-2.09,5.22,5.22,0,0,0-2-1.11,8.6,8.6,0,0,0-2.44-.33,5.71,5.71,0,0,0-1.86.28,5.16,5.16,0,0,0-1.43.73,3.42,3.42,0,0,0-.94,1,2.32,2.32,0,0,0-.34,1.18,4.11,4.11,0,0,0,.23,1.4,3.56,3.56,0,0,0,1,1.34,11.61,11.61,0,0,0,2.14,1.47q1.39,0.78,3.73,1.84a28.45,28.45,0,0,1,3.64,1.92,13.53,13.53,0,0,1,2.4,1.89,5.92,5.92,0,0,1,1.32,2,5.72,5.72,0,0,1,.4,2.09,6.24,6.24,0,0,1-.78,3.09,7.68,7.68,0,0,1-2,2.36,9.7,9.7,0,0,1-2.87,1.51,10.26,10.26,0,0,1-3.28.54,19.94,19.94,0,0,1-2.63-.19,23.16,23.16,0,0,1-3-.62q-0.5-.13-0.88-0.2a4.14,4.14,0,0,0-.7-0.07,1.21,1.21,0,0,0-1.05.7h-1v-8.83h1a11.59,11.59,0,0,0,1.23,3.32,9,9,0,0,0,1.92,2.38,7.76,7.76,0,0,0,2.43,1.43,7.93,7.93,0,0,0,2.74.49,5.41,5.41,0,0,0,1.83-.3,4.82,4.82,0,0,0,1.45-.8,3.52,3.52,0,0,0,1-1.17,3.22,3.22,0,0,0,.34-1.46,4.49,4.49,0,0,0-.29-1.66,3.89,3.89,0,0,0-1.08-1.45,12.4,12.4,0,0,0-2.17-1.47q-1.38-.77-3.54-1.77a29.31,29.31,0,0,1-3.5-1.81,9.76,9.76,0,0,1-2.09-1.69,4.53,4.53,0,0,1-1-1.78,7.8,7.8,0,0,1-.26-2.12,6.71,6.71,0,0,1,2.28-5.09,8.08,8.08,0,0,1,2.57-1.51,9.36,9.36,0,0,1,3.28-.55,8.32,8.32,0,0,1,1.43.16l1.77,0.35,1.62,0.35a5.7,5.7,0,0,0,1,.16,1.23,1.23,0,0,0,.73-0.19,2.59,2.59,0,0,0,.61-0.84h1Z"/><path d="M26.95,367.32H11.59L8.89,373.1a8.42,8.42,0,0,0-1,3.19,2,2,0,0,0,.16.8,1.61,1.61,0,0,0,.66.67,4.6,4.6,0,0,0,1.4.51,17,17,0,0,0,2.37.31v1H0v-1a7.29,7.29,0,0,0,3.22-1.05,8.25,8.25,0,0,0,1.57-2,34,34,0,0,0,1.74-3.31l14-30.13h1l13.81,30.45a26,26,0,0,0,1.57,3,7.43,7.43,0,0,0,1.48,1.78,4.36,4.36,0,0,0,1.65.88,9.85,9.85,0,0,0,2.12.3v1H26.48v-1a10.64,10.64,0,0,0,2-.24,4,4,0,0,0,1.24-.49,1.79,1.79,0,0,0,.64-0.67,1.84,1.84,0,0,0,.19-0.84,4.41,4.41,0,0,0-.28-1.53,23.41,23.41,0,0,0-.89-2.23Zm-0.82-2-6.73-14.8-6.91,14.8H26.13Z"/><path d="M52.64,359.39q2.93-2.7,3.45-3.1a10.66,10.66,0,0,1,2.84-1.59,8.61,8.61,0,0,1,3-.57,7.07,7.07,0,0,1,4.35,1.34,6.57,6.57,0,0,1,2.41,3.93,20,20,0,0,1,5.09-4.24,9.56,9.56,0,0,1,4.27-1,8.14,8.14,0,0,1,2.75.46,5.39,5.39,0,0,1,2.24,1.52A7.66,7.66,0,0,1,84.56,359a15,15,0,0,1,.56,4.4V374q0,1.21.07,2.09a3,3,0,0,0,.45,1.45,2.16,2.16,0,0,0,1.2.82,8.05,8.05,0,0,0,2.31.26v1H75.93v-1h0.56a5.52,5.52,0,0,0,2.37-.43,2.51,2.51,0,0,0,1.29-1.57,15.36,15.36,0,0,0,.12-2.62V363.35a12.14,12.14,0,0,0-.29-2.93,4.64,4.64,0,0,0-.86-1.84,3,3,0,0,0-1.39-1,6.07,6.07,0,0,0-1.9-.27,7.27,7.27,0,0,0-1.54.16,6.87,6.87,0,0,0-1.57.57,14.08,14.08,0,0,0-1.77,1.07,24.43,24.43,0,0,0-2.09,1.66L68.91,374q0,1.32.06,2.06a3.92,3.92,0,0,0,.22,1.13,1.21,1.21,0,0,0,.45.58c0.2,0.13.44,0.27,0.73,0.43a3.44,3.44,0,0,0,1.14.31,13.89,13.89,0,0,0,1.76.09v1H59.72v-1a11.63,11.63,0,0,0,2.47-.2,2.19,2.19,0,0,0,1.3-.73,2.7,2.7,0,0,0,.5-1.42q0.09-.89.09-2.27V363.35a10.54,10.54,0,0,0-.34-2.89,4.83,4.83,0,0,0-1-1.86,3.55,3.55,0,0,0-1.45-1,5.18,5.18,0,0,0-1.83-.31,6.36,6.36,0,0,0-2,.34,11.94,11.94,0,0,0-1.95.84,11.41,11.41,0,0,0-1.68,1.11,9.78,9.78,0,0,0-1.26,1.18V374a18,18,0,0,0,.09,2,4.89,4.89,0,0,0,.26,1.19,1.51,1.51,0,0,0,.45.66,4.36,4.36,0,0,0,.63.4,7.9,7.9,0,0,0,2.93.35v1H43.74v-1a9.83,9.83,0,0,0,2.15-.19,2.22,2.22,0,0,0,1.23-.69,2.74,2.74,0,0,0,.56-1.4,16.8,16.8,0,0,0,.13-2.34v-9.45q0-2.4-.09-3.77a8.51,8.51,0,0,0-.32-2.05,1.27,1.27,0,0,0-.64-0.85,2.91,2.91,0,0,0-1.05-.16,6,6,0,0,0-2,.41l-0.44-1,8.08-3h1.26v5.27Z"/><path d="M95.8,364.16a14.48,14.48,0,0,0,.79,4.94,11.39,11.39,0,0,0,2.14,3.71,9.12,9.12,0,0,0,3.12,2.32,9,9,0,0,0,3.73.8,7.89,7.89,0,0,0,4.58-1.34,9.87,9.87,0,0,0,3.26-4.58l0.91,0.54a12.52,12.52,0,0,1-1.23,3.56,12,12,0,0,1-2.33,3.13,11.5,11.5,0,0,1-3.31,2.23,9.88,9.88,0,0,1-4.11.85,11.4,11.4,0,0,1-4.52-.9,11.18,11.18,0,0,1-3.72-2.57,12.24,12.24,0,0,1-2.53-4,14.3,14.3,0,0,1-.94-5.31,16,16,0,0,1,1-5.71,12.3,12.3,0,0,1,2.62-4.22A11,11,0,0,1,99.15,355a13.18,13.18,0,0,1,4.87-.89,11.52,11.52,0,0,1,4.11.72,9.48,9.48,0,0,1,3.26,2,9.38,9.38,0,0,1,2.15,3.17,10.63,10.63,0,0,1,.78,4.15H95.8Zm0-1.57H108.2a9,9,0,0,0-.61-3.35,5.5,5.5,0,0,0-2.18-2.37,5.82,5.82,0,0,0-3-.86,6.15,6.15,0,0,0-2.31.45,6.46,6.46,0,0,0-2,1.3,7.13,7.13,0,0,0-1.51,2.07A7.89,7.89,0,0,0,95.8,362.6Z"/><path d="M125.73,354.12v5.56q3.39-5.56,6.91-5.56a4.26,4.26,0,0,1,1.46.24,4,4,0,0,1,1.19.66,3,3,0,0,1,.79,1,2.45,2.45,0,0,1,.28,1.13,2.37,2.37,0,0,1-.76,1.78,2.53,2.53,0,0,1-1.81.73,2.59,2.59,0,0,1-1.11-.3q-0.61-.3-1.21-0.63l-1.1-.64a1.71,1.71,0,0,0-.76-0.3,1.57,1.57,0,0,0-.85.31,5.16,5.16,0,0,0-1,.86,12.74,12.74,0,0,0-1,1.32,19.3,19.3,0,0,0-1,1.69V373.8a12.41,12.41,0,0,0,.15,2,3.29,3.29,0,0,0,.63,1.51,3,3,0,0,0,1.42,1,7.48,7.48,0,0,0,2.49.34v1H116.69v-1a11.12,11.12,0,0,0,2.11-.16,2.37,2.37,0,0,0,1.29-.65,2.7,2.7,0,0,0,.64-1.39,13,13,0,0,0,.18-2.39v-9.58a33.16,33.16,0,0,0-.2-5.13,1.85,1.85,0,0,0-2-1.59,6.17,6.17,0,0,0-2,.41l-0.29-1,8.1-3h1.23Z"/><path d="M151,354.12a12.9,12.9,0,0,1,9.29,3.78,12.56,12.56,0,0,1,3.61,8.86,13.61,13.61,0,0,1-1,5.12,13.93,13.93,0,0,1-2.74,4.33,13.2,13.2,0,0,1-4.18,3,12.57,12.57,0,0,1-5.33,1.12,12.14,12.14,0,0,1-5.16-1.08,12.68,12.68,0,0,1-4-2.88,12.87,12.87,0,0,1-2.57-4.12,13.1,13.1,0,0,1-.91-4.81,13.44,13.44,0,0,1,.94-4.91,13.65,13.65,0,0,1,2.65-4.28,13.07,13.07,0,0,1,4.1-3A12.14,12.14,0,0,1,151,354.12ZM150,355.88a6.3,6.3,0,0,0-2.47.5,5.48,5.48,0,0,0-2.11,1.62,8.52,8.52,0,0,0-1.48,2.89,14.5,14.5,0,0,0-.56,4.31,20.68,20.68,0,0,0,.6,5,15.37,15.37,0,0,0,1.7,4.22,9.25,9.25,0,0,0,2.66,2.9,6,6,0,0,0,3.5,1.08,6.6,6.6,0,0,0,2.59-.5,5.15,5.15,0,0,0,2.06-1.62,8.25,8.25,0,0,0,1.38-3,17.49,17.49,0,0,0,.5-4.51,21.75,21.75,0,0,0-.56-5,14.29,14.29,0,0,0-1.62-4.12,8.57,8.57,0,0,0-2.63-2.79A6.34,6.34,0,0,0,150,355.88Z"/><path d="M175.62,359.36q4.71-5.24,9-5.24a8,8,0,0,1,2.75.46,5.27,5.27,0,0,1,2.19,1.54A7.6,7.6,0,0,1,191,359a16,16,0,0,1,.53,4.46V374a13,13,0,0,0,.19,2.51,2.71,2.71,0,0,0,.66,1.39,2.18,2.18,0,0,0,1.26.59,13.42,13.42,0,0,0,2,.12v1H182.38v-1h0.56a7.71,7.71,0,0,0,2.06-.22,2,2,0,0,0,1.13-.74,3,3,0,0,0,.48-1.42,20.19,20.19,0,0,0,.1-2.24V363.87a9.59,9.59,0,0,0-1-4.9,3.48,3.48,0,0,0-3.2-1.53q-3.48,0-6.93,3.51v13a8.92,8.92,0,0,0,.32,3.1,3.68,3.68,0,0,0,.45.7,1.69,1.69,0,0,0,.67.47,4.19,4.19,0,0,0,1.11.26,16.09,16.09,0,0,0,1.8.08v1H166.72v-1h0.59a5.74,5.74,0,0,0,1.73-.22,2.06,2.06,0,0,0,1.07-.76,3.28,3.28,0,0,0,.54-1.42,13.94,13.94,0,0,0,.15-2.23v-9.18a35.24,35.24,0,0,0-.23-5.43,2.21,2.21,0,0,0-.66-1.32,1.94,1.94,0,0,0-1.21-.35,6,6,0,0,0-2,.41l-0.44-1,8.08-3h1.26v5.24Z"/><path d="M204.93,370.56a8.77,8.77,0,0,1-3.79-3.09,7.75,7.75,0,0,1-1.3-4.39,7.87,7.87,0,0,1,.79-3.47,8.64,8.64,0,0,1,2.22-2.85,11.12,11.12,0,0,1,3.38-1.93,13.46,13.46,0,0,1,10.93,1h6.66a2.54,2.54,0,0,1,.5.05,0.3,0.3,0,0,1,.19.09l0.09,0.13a1.55,1.55,0,0,1,.18.86c0,0.27,0,.49,0,0.66a0.52,0.52,0,0,1-.18.39,1,1,0,0,1-.56.18q-0.4,0-1.19,0h-3.48a7.51,7.51,0,0,1,1.64,5,7.25,7.25,0,0,1-.75,3.23,8,8,0,0,1-2.12,2.66,10.63,10.63,0,0,1-3.34,1.81,13.32,13.32,0,0,1-4.36.67,16.32,16.32,0,0,1-4.07-.54,6.91,6.91,0,0,0-1.76,1.8,2.77,2.77,0,0,0-.44,1.31,1.36,1.36,0,0,0,.18.7,1.43,1.43,0,0,0,.83.5,10.4,10.4,0,0,0,1.95.33q1.29,0.12,3.51.18,3,0.08,5,.16t2.85,0.22a8.64,8.64,0,0,1,2.46.65,6.55,6.55,0,0,1,1.89,1.21,5.2,5.2,0,0,1,1.2,1.67,5,5,0,0,1,.42,2.05q0,3.05-3.1,5.72-4.59,3.94-11.91,3.94a21.38,21.38,0,0,1-4.1-.4,20.47,20.47,0,0,1-3.77-1.09,9.84,9.84,0,0,1-2.78-1.63,2.7,2.7,0,0,1-1.08-2,2.74,2.74,0,0,1,.13-0.82,4.39,4.39,0,0,1,.41-0.89,8.92,8.92,0,0,1,.73-1q0.45-.57,1.1-1.32,0.2-.24,3-2.92a9.14,9.14,0,0,1-2.15-1.5,2.12,2.12,0,0,1-.63-1.5,3.77,3.77,0,0,1,.15-1,3.85,3.85,0,0,1,.64-1.2,11.77,11.77,0,0,1,1.42-1.54Q203.38,371.75,204.93,370.56Zm-0.29,9q-2.78,2.78-2.78,4.75a2.16,2.16,0,0,0,.8,1.62,6.73,6.73,0,0,0,2.18,1.24,16.38,16.38,0,0,0,3.23.8,26.15,26.15,0,0,0,3.94.28,19,19,0,0,0,4.58-.49,11.51,11.51,0,0,0,3.2-1.25,5.7,5.7,0,0,0,1.87-1.73,3.51,3.51,0,0,0,.61-1.9,2.1,2.1,0,0,0-.32-1.19,2.29,2.29,0,0,0-1.16-.8,10.41,10.41,0,0,0-2.3-.49q-1.46-.18-3.75-0.23-3.31-.08-5.82-0.24T204.64,379.58ZM210,355.42a5.12,5.12,0,0,0-2,.39,4.35,4.35,0,0,0-1.62,1.19,5.76,5.76,0,0,0-1.08,2,9.42,9.42,0,0,0-.4,2.88,13.56,13.56,0,0,0,.4,3.37,8.41,8.41,0,0,0,1.16,2.66,5.55,5.55,0,0,0,1.84,1.74,4.85,4.85,0,0,0,2.46.62,5.42,5.42,0,0,0,2-.38,4.14,4.14,0,0,0,1.61-1.16,5.59,5.59,0,0,0,1.05-2,9.48,9.48,0,0,0,.38-2.85,13.61,13.61,0,0,0-.4-3.36,9,9,0,0,0-1.14-2.7,5.62,5.62,0,0,0-1.83-1.8A4.74,4.74,0,0,0,210,355.42Z"/><path d="M232.23,364.16a14.48,14.48,0,0,0,.79,4.94,11.39,11.39,0,0,0,2.14,3.71,9.12,9.12,0,0,0,3.12,2.32,9,9,0,0,0,3.73.8,7.89,7.89,0,0,0,4.58-1.34,9.87,9.87,0,0,0,3.26-4.58l0.91,0.54a12.52,12.52,0,0,1-1.23,3.56,12,12,0,0,1-2.33,3.13,11.5,11.5,0,0,1-3.31,2.23,9.88,9.88,0,0,1-4.11.85,11.4,11.4,0,0,1-4.52-.9,11.18,11.18,0,0,1-3.72-2.57,12.24,12.24,0,0,1-2.53-4,14.3,14.3,0,0,1-.94-5.31,16,16,0,0,1,1-5.71,12.3,12.3,0,0,1,2.62-4.22,11,11,0,0,1,3.94-2.62,13.18,13.18,0,0,1,4.87-.89,11.52,11.52,0,0,1,4.11.72,9.48,9.48,0,0,1,3.26,2A9.38,9.38,0,0,1,250,360a10.63,10.63,0,0,1,.78,4.15H232.23Zm0-1.57h12.41a9,9,0,0,0-.61-3.35,5.5,5.5,0,0,0-2.18-2.37,5.82,5.82,0,0,0-3-.86,6.15,6.15,0,0,0-2.31.45,6.46,6.46,0,0,0-2,1.3,7.13,7.13,0,0,0-1.51,2.07A7.89,7.89,0,0,0,232.23,362.6Z"/><path d="M262.14,359.36q4.71-5.24,9-5.24a8,8,0,0,1,2.75.46,5.27,5.27,0,0,1,2.19,1.54,7.6,7.6,0,0,1,1.46,2.86,16,16,0,0,1,.53,4.46V374a13,13,0,0,0,.19,2.51,2.71,2.71,0,0,0,.66,1.39,2.18,2.18,0,0,0,1.26.59,13.42,13.42,0,0,0,2,.12v1H268.9v-1h0.56a7.71,7.71,0,0,0,2.06-.22,2,2,0,0,0,1.13-.74,3,3,0,0,0,.48-1.42,20.19,20.19,0,0,0,.1-2.24V363.87a9.59,9.59,0,0,0-1-4.9,3.48,3.48,0,0,0-3.2-1.53q-3.48,0-6.93,3.51v13a8.92,8.92,0,0,0,.32,3.1,3.68,3.68,0,0,0,.45.7,1.69,1.69,0,0,0,.67.47,4.19,4.19,0,0,0,1.11.26,16.09,16.09,0,0,0,1.8.08v1H253.24v-1h0.59a5.74,5.74,0,0,0,1.73-.22,2.06,2.06,0,0,0,1.07-.76,3.28,3.28,0,0,0,.54-1.42,13.94,13.94,0,0,0,.15-2.23v-9.18a35.24,35.24,0,0,0-.23-5.43,2.21,2.21,0,0,0-.66-1.32,1.94,1.94,0,0,0-1.21-.35,6,6,0,0,0-2,.41l-0.44-1,8.08-3h1.26v5.24Z"/></svg>